<svg xmlns="http://www.w3.org/2000/svg" viewBox="0 0 600 450" width="600" height="450" role="img" aria-label="Cecina de León">
  <defs>
    <linearGradient id="bg" x1="0" y1="0" x2="0" y2="1">
      <stop offset="0" stop-color="#322823"/>
      <stop offset="1" stop-color="#1a100b"/>
    </linearGradient>
    <radialGradient id="glow" cx="0.5" cy="0.42" r="0.6">
      <stop offset="0" stop-color="#F4F1EB" stop-opacity="0.10"/>
      <stop offset="1" stop-color="#F4F1EB" stop-opacity="0"/>
    </radialGradient>
    <filter id="grain"><feTurbulence type="fractalNoise" baseFrequency="0.9" numOctaves="2" stitchTiles="stitch"/><feColorMatrix type="saturate" values="0"/></filter>
  </defs>
  <rect width="600" height="450" fill="url(#bg)"/>
  <rect width="600" height="450" fill="url(#glow)"/>
    <g transform="translate(300 232)">
      <g transform="rotate(-26)"><rect x="-92" y="-58" width="184" height="116" rx="14" fill="#3d1c10"/></g>
      <g transform="rotate(-13)"><rect x="-96" y="-60" width="192" height="120" rx="14" fill="#4e2414"/></g>
      <g transform="rotate(0)"><rect x="-100" y="-62" width="200" height="124" rx="14" fill="#6b3620"/></g>
      <g transform="rotate(13)"><rect x="-96" y="-60" width="192" height="120" rx="14" fill="#4e2414"/></g>
      <g transform="rotate(26)"><rect x="-92" y="-58" width="184" height="116" rx="14" fill="#3d1c10"/></g>
    </g>
  <rect width="600" height="450" filter="url(#grain)" opacity="0.05"/>
  <rect x="16" y="16" width="568" height="418" rx="18" fill="none" stroke="#F4F1EB" stroke-opacity="0.16"/>
  <g transform="translate(40 388)">
    <rect width="98" height="30" rx="15" fill="#F4F1EB" fill-opacity="0.10" stroke="#F4F1EB" stroke-opacity="0.22"/>
    <text x="20" y="20" font-family="Arial, Helvetica, sans-serif" font-size="13" letter-spacing="2" fill="#F4F1EB" fill-opacity="0.85">ESPAÑA</text>
  </g>
  <text x="560" y="404" text-anchor="end" font-family="Georgia, 'Times New Roman', serif" font-size="15" letter-spacing="1" fill="#F4F1EB" fill-opacity="0.6">EL CHARCU</text>
</svg>
